<svg width="200" height="200" viewBox="0 0 200 200" xmlns="http://www.w3.org/2000/svg">
  <defs>
    <radialGradient id="goldGrad" cx="50%" cy="50%">
      <stop offset="0%" stop-color="#FFD700" stop-opacity="1" />
      <stop offset="100%" stop-color="#FFA500" stop-opacity="0.8" />
    </radialGradient>
  </defs>
  
  <g transform="translate(100, 100)">
    <g>
      <path d="M 0,-75 L 5,-85 L 0,-95 L -5,-85 Z" fill="url(#goldGrad)" stroke="#000" stroke-width="1.5" transform="rotate(0)" />
      <path d="M 0,-75 L 5,-85 L 0,-95 L -5,-85 Z" fill="url(#goldGrad)" stroke="#000" stroke-width="1.5" transform="rotate(36)" />
      <path d="M 0,-75 L 5,-85 L 0,-95 L -5,-85 Z" fill="url(#goldGrad)" stroke="#000" stroke-width="1.5" transform="rotate(72)" />
      <path d="M 0,-75 L 5,-85 L 0,-95 L -5,-85 Z" fill="url(#goldGrad)" stroke="#000" stroke-width="1.5" transform="rotate(108)" />
      <path d="M 0,-75 L 5,-85 L 0,-95 L -5,-85 Z" fill="url(#goldGrad)" stroke="#000" stroke-width="1.5" transform="rotate(144)" />
      <path d="M 0,-75 L 5,-85 L 0,-95 L -5,-85 Z" fill="url(#goldGrad)" stroke="#000" stroke-width="1.5" transform="rotate(180)" />
      <path d="M 0,-75 L 5,-85 L 0,-95 L -5,-85 Z" fill="url(#goldGrad)" stroke="#000" stroke-width="1.5" transform="rotate(216)" />
      <path d="M 0,-75 L 5,-85 L 0,-95 L -5,-85 Z" fill="url(#goldGrad)" stroke="#000" stroke-width="1.5" transform="rotate(252)" />
      <path d="M 0,-75 L 5,-85 L 0,-95 L -5,-85 Z" fill="url(#goldGrad)" stroke="#000" stroke-width="1.5" transform="rotate(288)" />
      <path d="M 0,-75 L 5,-85 L 0,-95 L -5,-85 Z" fill="url(#goldGrad)" stroke="#000" stroke-width="1.5" transform="rotate(324)" />
    </g>
    
    <circle cx="0" cy="0" r="65" fill="none" stroke="#000" stroke-width="1" />
    <circle cx="0" cy="0" r="60" fill="none" stroke="url(#goldGrad)" stroke-width="1.5" />
    
    <circle cx="0" cy="-62.5" r="2" fill="url(#goldGrad)" />
    <circle cx="15.3" cy="-60.5" r="2" fill="url(#goldGrad)" />
    <circle cx="29.4" cy="-54.2" r="2" fill="url(#goldGrad)" />
    <circle cx="40.9" cy="-44.1" r="2" fill="url(#goldGrad)" />
    <circle cx="48.8" cy="-31.25" r="2" fill="url(#goldGrad)" />
    <circle cx="52.7" cy="-16.3" r="2" fill="url(#goldGrad)" />
    <circle cx="52.7" cy="-0.8" r="2" fill="url(#goldGrad)" />
    <circle cx="48.8" cy="14.1" r="2" fill="url(#goldGrad)" />
    <circle cx="40.9" cy="26.9" r="2" fill="url(#goldGrad)" />
    <circle cx="29.4" cy="37" r="2" fill="url(#goldGrad)" />
    <circle cx="15.3" cy="43.3" r="2" fill="url(#goldGrad)" />
    <circle cx="0" cy="45.3" r="2" fill="url(#goldGrad)" />
    <circle cx="-15.3" cy="43.3" r="2" fill="url(#goldGrad)" />
    <circle cx="-29.4" cy="37" r="2" fill="url(#goldGrad)" />
    <circle cx="-40.9" cy="26.9" r="2" fill="url(#goldGrad)" />
    <circle cx="-48.8" cy="14.1" r="2" fill="url(#goldGrad)" />
    <circle cx="-52.7" cy="-0.8" r="2" fill="url(#goldGrad)" />
    <circle cx="-52.7" cy="-16.3" r="2" fill="url(#goldGrad)" />
    <circle cx="-48.8" cy="-31.25" r="2" fill="url(#goldGrad)" />
    <circle cx="-40.9" cy="-44.1" r="2" fill="url(#goldGrad)" />
    <circle cx="-29.4" cy="-54.2" r="2" fill="url(#goldGrad)" />
    <circle cx="-15.3" cy="-60.5" r="2" fill="url(#goldGrad)" />
    
    <circle cx="0" cy="0" r="55" fill="none" stroke="#000" stroke-width="1" />
    
    <path d="M 0,-35 L 30,-10 L 18,25 L -18,25 L -30,-10 Z" fill="url(#goldGrad)" stroke="#000" stroke-width="2.5" />
    <path d="M 0,35 L -30,10 L -18,-25 L 18,-25 L 30,10 Z" fill="url(#goldGrad)" stroke="#000" stroke-width="2.5" />
    
    <text x="0" y="8" font-size="28" fill="url(#goldGrad)" text-anchor="middle" font-family="serif" font-weight="bold">यं</text>
    
    <circle cx="0" cy="-15" r="3" fill="url(#goldGrad)" />
  </g>
</svg>
